<svg width="225" height="36" viewBox="0 0 225 36" fill="none" xmlns="http://www.w3.org/2000/svg">
<path d="M11.0725 32.7229V19.8029H15.3825L16.2025 14.4529H11.0725V10.9829C11.0725 9.52287 11.7925 8.09287 14.0825 8.09287H16.4125V3.55287C16.4125 3.55287 14.2925 3.19287 12.2725 3.19287C8.05254 3.19287 5.29254 5.75287 5.29254 10.3829V14.4529H0.602539V19.8029H5.29254V32.7229H11.0725Z" fill="#F0E74D"/>
<path d="M63.4315 9.46606C62.5715 9.85606 61.6115 10.0961 60.6915 10.2461C61.1315 10.1761 61.7815 9.37606 62.0415 9.04606C62.4415 8.55606 62.7615 7.98606 62.9515 7.38606C62.9715 7.33606 62.9915 7.27606 62.9515 7.24606C62.8915 7.22606 62.8515 7.23606 62.8015 7.25606C61.7615 7.81606 60.6915 8.21606 59.5415 8.50606C59.4515 8.52606 59.3815 8.50606 59.3215 8.44606C59.2215 8.33606 59.1415 8.23606 59.0315 8.15606C58.5515 7.74606 58.0415 7.42606 57.4515 7.18606C56.6915 6.87606 55.8515 6.74606 55.0315 6.79606C54.2315 6.84606 53.4415 7.07606 52.7415 7.44606C52.0315 7.81606 51.3915 8.33606 50.8915 8.95606C50.3715 9.60606 49.9815 10.3661 49.7915 11.1661C49.6015 11.9461 49.6115 12.7161 49.7315 13.5061C49.7515 13.6361 49.7315 13.6561 49.6215 13.6361C45.1515 12.9661 41.4415 11.3761 38.4415 7.94606C38.3115 7.79606 38.2415 7.79606 38.1315 7.95606C36.8115 9.92606 37.4515 13.0961 39.1015 14.6561C39.3215 14.8661 39.5515 15.0761 39.7915 15.2661C39.7015 15.2861 38.6115 15.1661 37.6315 14.6561C37.5015 14.5761 37.4315 14.6161 37.4215 14.7661C37.4115 14.9761 37.4215 15.1761 37.4615 15.4061C37.7115 17.4061 39.1015 19.2561 40.9915 19.9761C41.2215 20.0761 41.4615 20.1561 41.7115 20.1961C41.2815 20.2861 40.8315 20.3561 39.5915 20.2661C39.4415 20.2361 39.3815 20.3161 39.4415 20.4661C40.3715 23.0061 42.3815 23.7561 43.8915 24.1861C44.0915 24.2261 44.2915 24.2261 44.4915 24.2661C44.4815 24.2861 44.4715 24.2861 44.4615 24.3061C43.9615 25.0661 42.2315 25.6361 41.4215 25.9161C39.9515 26.4261 38.3615 26.6561 36.8115 26.5061C36.5615 26.4661 36.5115 26.4761 36.4415 26.5061C36.3715 26.5461 36.4415 26.6061 36.5115 26.6761C36.8315 26.8861 37.1415 27.0661 37.4715 27.2461C38.4615 27.7661 39.4815 28.1861 40.5515 28.4761C46.0915 30.0061 52.3315 28.8861 56.4915 24.7461C59.7615 21.4961 60.9015 17.0261 60.9015 12.5361C60.9015 12.3561 61.1115 12.2661 61.2315 12.1661C62.0815 11.5261 62.7715 10.7661 63.4015 9.90606C63.5415 9.71606 63.5415 9.54606 63.5415 9.47606V9.45606C63.5415 9.38606 63.5415 9.40606 63.4315 9.45606" fill="#F0E74D"/>
<path d="M110.848 7.73285C108.728 6.76285 106.498 6.06285 104.198 5.67285C103.908 6.18285 103.578 6.86285 103.348 7.42285C100.908 7.06285 98.4183 7.06285 95.9783 7.42285C95.7183 6.82285 95.4283 6.24285 95.1083 5.67285C92.8083 6.06285 90.5683 6.75285 88.4483 7.73285C84.2483 13.9929 83.1083 20.1028 83.6783 26.1129C86.1383 27.9429 88.8983 29.3329 91.8383 30.2329C92.4983 29.3329 93.0783 28.3929 93.5883 27.3929C92.6383 27.0329 91.7183 26.5929 90.8383 26.0829C91.0683 25.9129 91.2883 25.7329 91.4983 25.5629C96.6683 28.0029 102.658 28.0029 107.818 25.5629C108.038 25.7429 108.268 25.9229 108.488 26.0929C107.608 26.6129 106.688 27.0529 105.728 27.4129C106.228 28.4029 106.818 29.3529 107.478 30.2429C110.418 29.3529 113.178 27.9629 115.638 26.1229C116.298 19.1529 114.488 13.0929 110.838 7.73285M94.2883 22.4329C92.6983 22.4329 91.3883 20.9729 91.3883 19.1829C91.3883 17.3929 92.6683 15.9229 94.2883 15.9229C95.9083 15.9229 97.1983 17.3829 97.1883 19.1729C97.1683 20.9629 95.9083 22.4329 94.2883 22.4329ZM104.998 22.4329C103.408 22.4329 102.098 20.9729 102.098 19.1829C102.098 17.3929 103.378 15.9229 104.998 15.9229C106.618 15.9229 107.908 17.3829 107.898 19.1729C107.878 20.9629 106.618 22.4329 104.998 22.4329Z" fill="#F0E74D"/>
<path d="M153.09 0.639648C143.525 0.639648 135.772 8.39294 135.772 17.9579C135.772 27.5228 143.525 35.2761 153.09 35.2761C162.655 35.2761 170.409 27.5228 170.409 17.9579C170.409 8.39294 162.657 0.639648 153.09 0.639648ZM161.032 25.6181C160.722 26.1269 160.056 26.2882 159.547 25.9759C155.481 23.4921 150.363 22.9296 144.334 24.3069C143.753 24.4393 143.174 24.0753 143.041 23.4942C142.909 22.913 143.271 22.334 143.854 22.2016C150.451 20.694 156.11 21.3434 160.676 24.1332C161.185 24.4455 161.346 25.1094 161.034 25.6181H161.032ZM163.152 20.9029C162.761 21.5378 161.929 21.7384 161.294 21.3475C156.639 18.4852 149.544 17.658 144.036 19.329C143.323 19.5441 142.568 19.1429 142.351 18.4294C142.136 17.7159 142.539 16.9631 143.25 16.746C149.539 14.8371 157.359 15.7616 162.705 19.0478C163.34 19.4386 163.54 20.27 163.15 20.9049L163.152 20.9029ZM163.334 15.9911C157.752 12.676 148.543 12.372 143.213 13.9892C142.357 14.2477 141.453 13.7659 141.193 12.9097C140.934 12.0535 141.416 11.1497 142.272 10.8891C148.39 9.03198 158.56 9.38976 164.986 13.2054C165.757 13.6624 166.01 14.6572 165.553 15.4245C165.098 16.1938 164.101 16.4482 163.334 15.9911Z" fill="#F0E74D"/>
<path d="M213.411 5.87183C213.553 6.07487 213.768 5.9672 213.944 5.97335C215.971 6.06564 218.001 6.1364 220.02 6.38867C222.745 6.72709 224.127 8.03151 224.533 10.748C225.065 14.2921 225.084 17.8547 224.896 21.4234C224.822 22.8355 224.705 24.2384 224.444 25.632C224.019 27.8994 222.604 29.2376 220.309 29.5084C216.531 29.9575 212.731 29.9914 208.938 30.0345C205.053 30.0775 201.167 29.9729 197.288 29.7176C196.408 29.6591 195.528 29.5668 194.66 29.4069C192.771 29.0592 191.461 27.8009 191.052 25.9212C190.725 24.4322 190.639 22.9155 190.519 21.4019C190.507 21.2419 190.609 21.045 190.409 20.925V14.9905C190.609 14.8705 190.507 14.6736 190.519 14.5136C190.627 13.1785 190.719 11.8402 190.944 10.5173C191.362 8.04074 192.768 6.70863 195.257 6.38867C197.238 6.1364 199.229 6.07487 201.219 5.97643C201.395 5.9672 201.61 6.07795 201.748 5.87183H213.411V5.87183ZM204.308 12.8093V23.1062C207.311 21.3803 210.255 19.6883 213.267 17.9562C210.24 16.2149 207.301 14.529 204.308 12.8093Z" fill="#F0E74D"/>
</svg>
