<svg width="272" height="264" viewBox="0 0 272 264" fill="none" xmlns="http://www.w3.org/2000/svg">
<path d="M272 246.123V182.247L1.18647 203.942L0.486816 264.315C1.27943 264.484 1.4311 265.14 1.56809 265.765C1.64638 266.123 1.68796 266.483 1.93749 266.755C2.23594 267.083 2.54663 267.132 2.7619 266.65C2.7619 266.645 2.7619 266.642 2.7619 266.638C3.42486 266.586 3.64747 267.24 4.09026 267.544C4.14163 267.483 4.19056 267.422 4.24193 267.36C4.47678 267.243 4.68472 267.294 4.92201 267.395C5.23514 267.532 5.40394 267.404 5.3966 267.088C5.55072 267.012 5.70239 266.949 5.85651 266.907C6.06934 266.922 6.25526 267.057 6.45341 267.294C6.70538 267.596 6.87174 268.159 7.47843 267.956C7.6619 267.765 7.83804 267.566 8.0582 267.412C8.6282 267.248 8.67713 266.459 9.20064 266.346C10.0397 266.165 10.8128 265.797 11.6347 265.601C12.2243 265.459 12.7013 265.248 13.0243 264.734C13.0243 264.712 13.0316 264.689 13.034 264.667C13.379 264.645 13.7582 264.062 14.0591 264.68C14.4823 265.552 15.4119 265.912 15.9696 266.642C16.0944 266.807 16.3341 266.824 16.5445 266.736C16.9531 266.429 17.2833 266.04 17.616 265.657C17.6772 265.618 17.7383 265.579 17.7995 265.54C17.8142 265.486 17.8288 265.432 17.846 265.378C18.2398 264.856 18.7707 265.378 19.2086 265.197C19.2404 265.143 19.2771 265.099 19.3138 265.057C19.3651 265.089 19.419 265.082 19.4777 265.04C19.5315 265.035 19.5853 265.03 19.6391 265.025C20.5736 265.035 20.965 265.79 21.4714 266.38C21.7038 266.65 21.8995 266.998 22.3374 266.699C22.45 266.691 22.5625 266.684 22.6726 266.677C22.6799 266.628 22.6873 266.579 22.6921 266.527C22.7484 266.488 22.768 266.449 22.7582 266.412C22.9735 266.346 23.1839 266.268 23.4065 266.233C23.6927 266.032 23.9911 265.841 23.9936 265.476C24.1673 265.4 24.2529 265.251 24.3116 265.077L24.3043 265.069C24.4119 264.988 24.4266 264.898 24.3728 264.8C24.9354 264.687 25.0724 264.214 25.2363 263.766C25.207 263.628 25.2314 263.494 25.2608 263.361C25.6962 263.04 26.1439 262.778 26.7873 263.156C26.9439 263.249 27.1273 263.151 27.2717 262.996C27.2986 263.001 27.323 263.006 27.35 263.011C27.4331 262.991 27.5114 262.962 27.5848 262.915C27.6876 262.798 27.7927 262.724 27.8979 262.68C28.189 262.665 28.4679 262.759 28.7542 262.974C29.1138 263.244 29.4538 263.251 29.652 262.906C29.7107 262.854 29.7669 262.79 29.8207 262.705C29.9357 262.516 30.1486 262.44 30.2904 262.281C30.5742 261.989 30.814 261.673 30.8874 261.256C30.8922 261.149 30.902 261.041 30.9094 260.933C31.1589 260.918 31.3595 261.195 31.5748 261.372C31.9173 261.467 31.8561 262.234 32.453 261.901C32.8493 261.987 33.4389 261.742 33.6199 262.112C34.0798 263.053 34.684 262.79 35.3519 262.494L35.3397 262.516C35.4033 262.514 35.4644 262.511 35.528 262.509C35.8338 262.766 36.1127 262.683 36.394 262.457C36.7121 262.2 37.0374 261.952 37.3603 261.702C37.534 261.732 37.7077 261.764 37.8814 261.793C38.4734 261.68 38.9994 261.166 39.6648 261.499C40.3228 262.036 40.7999 261.845 41.1473 261.132C41.3943 261.149 41.568 261.274 41.6879 261.487C41.7001 261.82 41.8958 261.987 42.2041 262.048C42.2628 262.107 42.3215 262.166 42.3802 262.224C41.9986 263.067 42.9135 263.418 43.0725 264.055C43.2633 264.268 43.4468 264.141 43.6303 264.043C43.9214 264.111 43.985 264.332 43.9899 264.589C43.9336 264.697 43.8774 264.802 43.8186 264.91C44.0437 265.033 44.1098 265.358 44.4473 265.354C45.4112 265.339 46.4142 265.542 47.2362 264.807C47.2411 264.692 47.2435 264.574 47.2484 264.459C47.4196 264.315 47.5811 264.163 47.6031 263.92C47.652 263.908 47.6985 263.896 47.745 263.883C48.4544 263.893 48.8997 264.351 49.3351 264.824C49.455 265.143 49.6923 265.268 50.025 265.282C51.368 265.341 52.6352 264.986 53.9 264.604C53.9024 264.604 53.9073 264.604 53.9097 264.601C53.9097 264.638 53.9073 264.675 53.9097 264.709C54.3599 264.871 54.8247 265.153 55.1672 264.535C55.2357 264.422 55.3042 264.307 55.3702 264.195C55.4436 264.128 55.5194 264.062 55.5928 263.996C55.5904 263.981 55.583 263.969 55.5806 263.957C56.5347 263.496 57.5328 263.3 58.5945 263.496C58.6825 263.922 58.8978 264.092 59.3137 263.847C59.5167 263.7 59.5436 263.364 59.8592 263.337C59.9864 263.641 60.1112 263.687 60.2335 263.334C60.4977 263.07 60.806 263.058 61.1387 263.168C61.1778 263.156 61.2194 263.146 61.2585 263.133C61.3344 263.067 61.4102 263.001 61.4787 262.93C61.5399 262.888 61.601 262.847 61.6622 262.803C61.6768 262.749 61.6964 262.697 61.7209 262.646C61.7429 262.609 61.7502 262.575 61.7453 262.543C61.7576 262.514 61.7698 262.484 61.7796 262.452C61.7869 262.43 61.7943 262.408 61.8016 262.384C62.1588 261.891 62.6211 261.516 63.1398 261.2C63.2107 261.078 63.2816 260.955 63.3526 260.83C63.4064 260.722 63.4578 260.612 63.5214 260.509C63.6143 260.379 63.7171 260.281 63.8247 260.208C64.2748 259.985 64.7005 259.948 65.0406 260.693C65.1384 260.909 65.3145 260.975 65.5567 260.862C65.9579 260.676 66.3689 260.514 66.775 260.342C67.0196 260.325 67.2104 260.23 67.3132 259.992L67.3059 259.982C67.9052 259.441 68.5021 259.438 69.0966 259.992C69.5663 259.708 69.9161 259.938 70.3002 260.22C71.0218 260.747 71.768 261.305 72.6951 260.597C72.9153 261.183 73.0988 261.835 73.9305 261.347C74.3929 261.57 74.9066 261.575 75.3934 261.688C75.6185 261.881 75.7261 262.229 76.1004 262.229C76.1542 262.17 76.2105 262.109 76.2643 262.05C76.3377 261.756 76.4111 261.462 76.482 261.168C76.7658 261.374 77.0765 261.553 77.326 261.796C78.1602 262.602 78.6862 262.491 79.1754 261.374C79.2464 261.2 79.3173 261.026 79.3907 260.852C79.5791 260.715 79.6843 260.524 79.7356 260.301C79.787 260.301 79.8384 260.293 79.8873 260.284C79.9583 260.244 80.0219 260.195 80.0806 260.139C80.0806 260.137 80.0855 260.132 80.0855 260.129C80.2983 260.146 80.4891 260.23 80.6873 260.338C81.1814 260.605 81.6658 260.585 82.0792 260.149C82.1453 259.975 82.2113 259.801 82.2798 259.627C82.2798 259.441 82.2749 259.255 82.2725 259.068C82.6884 259.073 83.1042 259.083 83.5201 259.09C83.7378 259.316 83.5324 260.102 84.2589 259.651C84.4302 259.576 84.599 259.502 84.7702 259.426C84.6944 258.997 85.1151 258.757 85.1689 258.377C85.2277 258.316 85.2864 258.255 85.3426 258.194C86.0056 257.76 86.8251 258.301 87.4954 257.865C87.5003 257.863 87.6348 258.034 87.6838 258.135C87.789 258.348 87.9235 258.696 88.1339 258.588C88.403 258.451 88.8678 258.368 88.8018 257.873C88.8482 257.809 88.8947 257.743 88.9412 257.679C89.7754 257.071 90.7515 257 91.73 256.924C92.1165 256.895 92.3636 257.071 92.4615 257.429C92.6621 258.171 93.1293 258.404 93.7727 258.316C93.7996 258.355 93.8265 258.392 93.8559 258.426C93.9219 258.48 93.9953 258.524 94.076 258.551C94.1152 258.564 94.1543 258.576 94.191 258.59C94.2008 258.674 94.2179 258.755 94.2571 258.833C94.3305 258.973 94.4087 259.108 94.4993 259.232C94.5849 259.409 94.717 259.556 94.9102 259.666C94.9567 259.7 95.0032 259.735 95.0546 259.764C95.2821 259.906 95.4533 260.139 95.7298 260.203C95.5292 260.502 95.7077 260.801 95.8056 261.1C96.0233 261.342 96.2557 261.573 96.2215 261.948C96.2019 262.161 96.2337 262.416 96.5322 262.349C96.8061 262.291 96.8355 262.097 96.7523 261.886C96.7963 261.884 96.8404 261.876 96.8844 261.862C97.1315 261.722 97.293 261.457 97.5865 261.386C97.726 261.31 97.8678 261.239 98.0097 261.168C98.159 261.08 98.296 260.967 98.4281 260.852C98.7118 260.744 98.9516 260.526 99.1986 260.33C99.3136 260.294 99.4384 260.271 99.5778 260.276C100.96 259.772 102.161 259.085 102.394 257.436C102.403 257.294 102.406 257.155 102.364 257.03C102.46 256.959 102.54 256.873 102.597 256.762C102.604 256.753 102.609 256.74 102.614 256.731C103.245 256.976 103.932 256.846 104.541 256.356C104.568 256.402 104.598 256.444 104.639 256.481C105.07 256.804 105.491 256.767 105.973 256.552C106.584 256.275 107.117 255.782 107.851 255.826C107.944 255.817 108.03 255.787 108.111 255.738C108.392 255.479 108.737 255.329 109.065 255.145C109.309 255.008 109.542 254.846 109.498 254.577C109.566 254.557 109.632 254.53 109.696 254.496C109.904 254.253 110.351 254.133 110.151 253.682C110.449 253.832 110.748 253.704 110.997 253.572C111.518 253.29 111.858 253.423 112.34 253.753C112.793 254.067 113.214 254.574 113.867 254.538C113.948 254.508 114.021 254.471 114.085 254.415C114.251 254.253 114.415 254.084 114.681 254.153C115.232 254.405 115.574 254.893 115.958 255.327C116.235 255.64 116.48 255.728 116.731 255.491C116.658 256.01 117.013 256.241 117.473 256.4C117.416 256.434 117.363 256.476 117.324 256.535C117.196 257.255 117.852 257.145 118.202 257.358C118.302 257.385 118.397 257.414 118.49 257.451C118.622 257.544 118.759 257.623 118.923 257.635C119.019 258.115 119.224 258.505 119.797 258.583C119.995 258.564 120.095 258.421 120.191 258.277C120.315 258.39 120.457 258.478 120.614 258.556C121.064 258.777 121.287 258.644 121.309 258.149C121.304 258.142 121.296 258.135 121.291 258.127C121.294 258.127 121.299 258.125 121.301 258.122C121.468 258.238 121.629 258.243 121.786 258.091C121.786 258.086 121.786 258.083 121.786 258.078C122.057 258.228 122.268 258.176 122.405 257.892C122.972 257.929 123.63 257.821 124.056 258.088C124.577 258.414 124.929 258.328 125.191 257.985C125.643 257.392 126.324 257.152 126.864 256.709C126.867 256.701 126.869 256.694 126.874 256.689C126.894 256.745 126.913 256.802 126.938 256.865C127.402 257.027 127.872 256.99 128.342 256.887C128.709 256.807 128.882 256.623 128.728 256.285C128.767 256.307 128.811 256.321 128.855 256.334C128.944 256.341 129.029 256.331 129.112 256.302C129.306 256.194 129.377 255.998 129.492 255.826C129.949 255.148 130.265 254.349 131.008 253.896C131.065 253.829 131.113 253.761 131.155 253.682C131.216 253.57 131.334 253.486 131.444 253.398C131.52 253.361 131.581 253.31 131.622 253.234C131.666 253.18 131.698 253.119 131.71 253.045C131.96 252.565 132.417 252.626 132.86 252.599C132.921 252.538 132.946 252.477 132.938 252.416C132.968 252.398 132.997 252.379 133.026 252.357C133.151 252.22 133.186 252.072 133.112 251.911C133.464 252.016 133.812 252.09 134.02 252.511C134.135 252.746 134.44 252.898 134.732 252.714C134.776 252.761 134.82 252.808 134.864 252.854C134.998 252.886 135.138 252.891 135.277 252.886C135.28 252.886 135.282 252.886 135.284 252.886C135.519 253.317 136.043 253.364 136.442 253.575C136.767 253.553 136.965 253.359 137.109 253.089C137.131 253.006 137.136 252.925 137.117 252.852C137.127 252.839 137.136 252.83 137.146 252.817C137.158 252.798 137.173 252.781 137.188 252.761C137.853 252.793 138.269 252.359 138.695 251.945C138.753 251.629 138.978 251.658 139.189 251.656C139.189 251.661 139.191 251.666 139.194 251.671C139.225 251.739 139.26 251.8 139.294 251.862C139.211 252.634 139.507 252.93 140.299 252.955C140.97 252.977 141.493 252.675 142.002 252.303C142.063 252.224 142.107 252.139 142.132 252.043C142.134 252.019 142.139 251.999 142.144 251.977C142.455 251.886 142.687 251.563 143.037 251.602C143.805 251.685 144.17 251.215 144.441 250.605C144.48 250.521 144.502 250.433 144.505 250.34C144.505 250.203 144.495 250.071 144.424 249.948C144.409 249.928 144.39 249.916 144.375 249.901C144.375 249.901 144.375 249.901 144.377 249.901C144.874 250.063 145.439 250.426 145.557 249.453C145.549 249.409 145.542 249.367 145.535 249.323C145.569 249.299 145.603 249.277 145.635 249.252C145.772 249.225 145.911 249.21 146.058 249.21C146.144 249.191 146.222 249.154 146.29 249.105C146.489 248.855 146.934 248.762 146.829 248.323C147.164 248.752 147.78 248.603 148.177 248.902C148.972 249.441 149.791 249.625 150.674 249.095C150.968 248.919 151.291 248.885 151.623 248.985C151.863 249.11 152.059 249.409 152.362 249.272C152.604 249.727 152.842 249.419 153.03 249.23C153.253 249.007 153.426 248.738 153.622 248.488C153.669 248.216 153.83 248.086 154.023 247.99C154.177 248.01 154.339 247.99 154.5 247.953C154.826 247.752 154.902 247.471 154.769 247.123C154.906 247.213 155.07 247.211 155.168 247.11C155.611 246.642 156.227 246.623 156.773 246.424C157.074 246.204 157.507 246.393 157.798 246.143C157.83 246.4 157.991 246.505 158.27 246.476C158.285 246.466 158.297 246.456 158.312 246.449C158.551 246.468 158.637 246.241 158.747 246.059C158.882 246.096 159.016 246.128 159.136 246.196C159.85 246.589 160.513 246.589 161.201 246.074C161.644 245.743 161.976 245.358 162.214 244.873C162.219 244.863 162.219 244.854 162.223 244.844C162.255 244.849 162.289 244.832 162.324 244.788C162.727 244.471 162.666 243.44 163.606 243.952C163.606 243.954 163.601 243.957 163.598 243.959C164.141 244.795 164.902 244.437 165.536 244.212C165.991 244.05 166.206 244.079 166.284 244.324C166.23 244.582 166.223 244.841 166.253 245.109C166.275 245.263 166.341 245.395 166.463 245.493C166.46 245.496 166.456 245.501 166.453 245.503C166.434 245.64 166.48 245.755 166.561 245.861C166.803 246.255 167.177 246.314 167.591 246.272C167.662 246.236 167.706 246.179 167.725 246.108C168.386 246.165 169.056 246.432 169.69 245.993C169.954 245.809 170.191 245.937 170.428 246.045C170.854 246.147 171.214 246.155 171.214 245.67C171.221 245.67 171.231 245.67 171.238 245.667C171.309 245.621 171.37 245.562 171.417 245.491C171.451 245.412 171.463 245.329 171.453 245.243C171.449 245.207 171.431 245.17 171.414 245.135C171.6 245.023 171.801 244.969 172.009 244.932C172.371 244.952 172.735 244.775 173.097 244.841C173.178 244.834 173.256 244.822 173.335 244.797C173.44 244.8 173.545 244.788 173.65 244.768C174.005 244.915 174.36 245.072 174.763 244.778C174.876 244.694 174.993 244.763 175.064 244.863C175.492 245.471 175.478 245.135 175.492 244.863C175.686 244.893 175.823 245.028 175.979 245.121C176.043 245.148 176.109 245.165 176.177 245.175C176.503 245.505 176.811 244.81 177.136 244.971C177.645 245.052 178.032 244.971 178.051 244.405C178.587 244.986 179.279 245.109 180.016 244.756C180.038 244.778 180.06 244.8 180.084 244.822C180.157 244.868 180.236 244.903 180.319 244.927C180.321 244.942 180.324 244.957 180.329 244.971C180.397 245.109 180.48 245.256 180.625 245.297C182.063 245.724 183.489 246.277 185.033 245.804C185.897 245.709 186.278 246.182 186.4 246.963C186.489 247.307 186.591 247.645 186.748 247.966C187.279 248.456 187.822 248.451 188.541 247.946C188.967 248.49 189.649 248.301 190.205 248.463C190.461 248.537 190.735 248.461 190.782 248.855C190.848 249.406 191.215 249.473 191.704 249.414C192.788 249.284 193.857 248.892 194.972 249.245C195.21 249.318 195.435 249.161 195.628 249.01C195.934 248.64 196.347 248.326 196.301 247.767C196.558 247.838 196.734 247.782 196.77 247.505C196.792 247.52 196.817 247.529 196.839 247.547C197.208 247.522 197.563 247.456 197.835 247.169C197.984 246.863 198.094 246.54 198.41 246.334C198.515 246.265 198.627 246.172 198.652 246.054C198.72 246.025 198.786 245.991 198.85 245.949C198.913 245.895 198.972 245.836 199.024 245.768C199.635 245.091 200.46 245.202 201.242 245.162C201.323 245.15 201.399 245.128 201.475 245.094C201.475 245.094 201.477 245.094 201.48 245.094C201.675 245.251 201.932 245.278 202.174 245.341C202.365 245.349 202.527 245.258 202.695 245.189C203.136 244.986 203.657 245.02 204.073 244.748C204.075 244.751 204.078 244.753 204.083 244.756C204.083 244.756 204.083 244.756 204.085 244.758C203.765 245.366 203.87 245.498 204.582 245.545C204.704 245.486 204.824 245.427 204.946 245.376C205.308 245.16 205.778 245.351 206.13 245.096C206.145 245.101 206.157 245.104 206.172 245.109C206.196 245.275 206.319 245.383 206.468 245.381C207.221 245.361 207.962 245.508 208.711 245.53C208.716 245.537 208.718 245.542 208.723 245.55C208.775 245.608 208.828 245.665 208.885 245.716C209.164 245.902 209.433 246.03 209.604 245.616C209.888 245.755 210.159 245.988 210.502 245.751C210.8 245.871 211.099 245.988 211.397 246.108C211.463 246.123 211.475 246.199 211.485 246.28C211.485 246.341 211.485 246.402 211.478 246.466C211.473 246.601 211.461 246.738 211.444 246.873C211.333 247.282 211.581 247.569 211.788 247.868C211.855 248.012 211.925 248.152 212.001 248.282C211.999 248.358 211.982 248.431 211.93 248.495C211.945 248.544 211.957 248.591 211.967 248.642C212.261 248.843 212.586 248.992 212.787 249.318C213.149 249.906 213.467 249.823 213.724 249.228C213.775 249.22 213.829 249.21 213.88 249.196C213.75 248.958 213.772 248.723 213.895 248.488C213.963 248.436 214.029 248.382 214.098 248.328C214.546 247.892 214.744 248.167 214.873 248.608C214.912 248.742 214.851 248.907 214.954 249.024C215.059 249.147 215.186 249.186 215.311 249.039C215.509 248.931 215.708 248.826 215.908 248.718C216.052 248.179 216.525 248.005 216.955 247.787C217.087 247.468 217.408 247.402 217.667 247.257C217.608 246.75 217.603 246.304 218.105 245.939C218.423 245.709 218.602 245.29 218.844 244.954C219.431 244.947 220.018 244.939 220.605 244.932C220.674 244.77 220.745 244.606 220.813 244.444C221.307 244.398 221.767 243.891 222.281 244.099C222.295 244.168 222.318 244.239 222.347 244.307C222.413 244.422 222.499 244.525 222.584 244.623C222.618 244.665 222.631 244.714 222.616 244.765C222.836 244.979 223.066 245.118 223.35 244.863C223.744 244.756 223.834 245.02 223.957 245.309C224.135 245.724 224.399 246.072 224.923 246.064L224.95 246.079C225.268 246.28 225.598 246.4 225.95 246.388C225.994 246.437 226.043 246.488 226.092 246.54C226.569 246.65 226.899 247.039 227.352 247.194C227.418 247.226 227.484 247.257 227.55 247.287C227.565 247.321 227.58 247.353 227.594 247.387C227.753 247.571 227.763 247.975 228.132 247.86C228.595 247.718 228.844 247.351 228.945 246.885C229.04 246.807 229.135 246.728 229.231 246.65C229.478 246.598 229.727 246.544 229.975 246.491C230.168 246.483 230.373 246.527 230.537 246.375C231.019 246.214 231.251 245.765 231.599 245.447C232.374 245.528 233.079 245.819 233.757 246.187C234.053 245.804 234.623 246.422 234.874 245.878C234.926 245.871 234.977 245.861 235.029 245.841C235.151 245.66 235.271 245.481 235.393 245.3C235.704 245.182 236.105 245.02 236.225 245.437C236.386 245.986 236.844 246.003 237.216 246.194C237.269 246.201 237.326 246.201 237.38 246.194C237.438 246.26 237.495 246.324 237.553 246.39C237.869 246.459 238.133 246.397 238.29 246.081C238.571 246.035 238.877 246.101 239.041 245.731C239.339 245.057 239.85 245.015 240.442 245.354C240.797 245.403 241.149 245.452 241.504 245.501C241.575 245.403 241.644 245.305 241.714 245.207C241.839 245.091 241.966 244.979 242.091 244.863C242.426 245.001 242.568 244.601 242.823 244.511C242.876 244.484 242.93 244.459 242.984 244.432C243.106 244.381 243.229 244.327 243.351 244.275C243.605 244.437 243.789 244.339 243.965 244.131C244.105 243.967 244.166 243.611 244.474 243.758C244.721 243.876 244.56 244.202 244.643 244.408C244.885 245.008 244.728 245.802 245.465 246.172C245.286 246.672 246.257 246.824 245.832 247.397C245.888 247.718 245.986 247.98 246.397 247.811C246.556 247.811 246.712 247.811 246.869 247.809C246.906 248.132 247.082 248.326 247.405 248.38C247.463 248.573 247.551 248.733 247.794 248.711C248.525 248.64 249.095 249.142 249.773 249.259C250.115 249.448 250.46 249.639 250.803 249.828C250.834 249.931 250.864 250.031 250.896 250.134C251.24 250.441 251.483 250.808 251.58 251.264C251.693 251.712 252.075 251.852 252.437 252.014C252.535 252.256 252.672 252.254 252.838 252.075C253.097 252.021 253.234 252.173 253.339 252.376C253.295 252.499 253.254 252.621 253.21 252.744C253.251 252.805 253.295 252.866 253.337 252.928C253.667 252.884 253.772 253.168 253.966 253.337C254.188 253.533 254.372 253.898 254.778 253.663C254.829 253.675 254.883 253.68 254.934 253.677C255.394 254.373 254.81 254.457 254.298 254.562C254.607 254.854 254.893 254.631 255.137 254.726C255.773 254.814 255.57 255.469 255.854 255.795C256.025 255.809 256.197 255.822 256.368 255.836C256.559 256.091 256.28 256.635 256.865 256.65C257.109 257.14 257.562 257.155 258.019 257.159C258.078 257.15 258.137 257.147 258.195 257.155C258.667 256.454 258.959 255.633 259.575 255.028C259.651 254.849 259.712 254.655 259.959 254.648C260.101 254.863 260.311 254.814 260.514 254.795C260.527 254.734 260.539 254.67 260.549 254.609C261.207 254.552 261.131 253.776 261.601 253.53C261.686 253.3 261.75 253.07 261.662 252.825C261.708 252.724 261.752 252.624 261.799 252.523C261.865 252.506 261.931 252.487 261.999 252.469C262.464 251.972 263.078 251.705 263.656 251.381C264.641 251.524 264.945 250.443 265.728 250.22C265.64 250.142 265.551 250.063 265.466 249.982C265.583 249.75 265.701 249.519 265.818 249.286C265.882 249.274 265.948 249.262 266.011 249.25C266.002 249.186 265.992 249.122 265.984 249.059C266.378 249.044 266.601 248.782 266.799 248.488C266.963 248.262 267.124 248.037 267.288 247.811C267.411 247.804 267.533 247.797 267.655 247.789C267.663 247.586 267.67 247.382 267.675 247.179C267.951 247.25 268.174 247.091 268.404 246.968C268.455 246.968 268.507 246.968 268.558 246.959C268.925 246.861 269.27 246.726 269.529 246.432C269.529 246.424 269.529 246.419 269.529 246.412C269.935 246.461 270.31 246.581 270.552 246.986C270.936 246.99 271.362 247.049 271.232 246.427C271.359 246.424 271.486 246.422 271.613 246.417C271.741 246.312 271.868 246.206 271.995 246.098L272 246.123Z" fill="#D0C834"/>
<path d="M272 0V240.455C271.993 240.534 271.985 240.615 271.978 240.695C271.919 240.691 271.861 240.686 271.804 240.678C271.506 240.933 271.207 241.188 270.909 241.443L270.527 241.458C270.664 242.077 270.236 242.024 269.852 242.024C269.605 241.622 269.231 241.507 268.822 241.46V241.482C268.565 241.779 268.223 241.918 267.858 242.019C267.807 242.028 267.756 242.031 267.704 242.031C267.477 242.156 267.257 242.32 266.98 242.251C266.975 242.455 266.97 242.658 266.965 242.862C266.843 242.871 266.721 242.879 266.601 242.889C266.439 243.114 266.28 243.342 266.119 243.57C266.021 243.717 265.918 243.859 265.789 243.964C265.659 244.07 265.507 244.141 265.312 244.151C265.322 244.214 265.331 244.278 265.341 244.339C265.275 244.354 265.211 244.366 265.148 244.378C265.033 244.611 264.918 244.844 264.803 245.077C264.891 245.155 264.979 245.234 265.067 245.312C264.287 245.542 263.998 246.628 263.01 246.496C262.437 246.829 261.823 247.101 261.366 247.603C261.3 247.623 261.234 247.642 261.168 247.662C261.124 247.762 261.077 247.863 261.033 247.963C261.124 248.206 261.062 248.439 260.982 248.669C260.517 248.919 260.6 249.693 259.942 249.759C259.932 249.821 259.92 249.884 259.91 249.946C259.707 249.968 259.497 250.019 259.352 249.806C259.108 249.818 259.049 250.012 258.973 250.193C258.364 250.806 258.083 251.629 257.618 252.335C257.559 252.33 257.501 252.332 257.442 252.342C257.214 252.342 256.984 252.34 256.784 252.278C256.581 252.215 256.405 252.092 256.28 251.847C255.698 251.837 255.969 251.291 255.776 251.039L255.262 251.002C254.974 250.678 255.169 250.024 254.533 249.943C254.286 249.853 254.002 250.078 253.692 249.789C254.201 249.676 254.785 249.588 254.315 248.897C254.264 248.899 254.21 248.894 254.159 248.885C253.758 249.122 253.567 248.76 253.344 248.566C253.149 248.397 253.038 248.118 252.711 248.164C252.667 248.103 252.623 248.044 252.581 247.983C252.623 247.86 252.664 247.735 252.703 247.613C252.596 247.412 252.459 247.26 252.199 247.319C252.124 247.402 252.053 247.449 251.989 247.449C251.918 247.449 251.852 247.39 251.798 247.26C251.434 247.106 251.05 246.971 250.932 246.522C250.829 246.067 250.585 245.702 250.235 245.4C250.203 245.297 250.171 245.197 250.14 245.094C249.795 244.91 249.45 244.724 249.105 244.538C248.425 244.427 247.847 243.932 247.118 244.013H247.069C246.864 244.013 246.783 243.864 246.725 243.685C246.402 243.633 246.223 243.442 246.181 243.119C246.025 243.121 245.866 243.124 245.709 243.126H245.707C245.298 243.3 245.198 243.038 245.139 242.719C245.526 242.188 244.738 242.026 244.738 241.617C244.738 241.58 244.743 241.541 244.758 241.499C244.016 241.137 244.166 240.343 243.916 239.745C243.831 239.539 243.99 239.213 243.74 239.095C243.429 238.951 243.373 239.309 243.236 239.475C243.121 239.615 243.001 239.703 242.862 239.703C242.788 239.703 242.71 239.679 242.622 239.625C242.5 239.679 242.38 239.735 242.258 239.789C242.204 239.816 242.15 239.843 242.096 239.87C241.844 239.965 241.707 240.365 241.37 240.23C241.247 240.348 241.122 240.463 240.998 240.578C240.929 240.678 240.858 240.776 240.79 240.874C240.435 240.83 240.08 240.786 239.728 240.74C239.131 240.409 238.62 240.455 238.329 241.134C238.17 241.504 237.864 241.443 237.583 241.492C237.428 241.808 237.167 241.874 236.851 241.808L236.675 241.617C236.621 241.624 236.567 241.624 236.511 241.617C236.137 241.428 235.679 241.418 235.513 240.872C235.386 240.458 234.987 240.622 234.679 240.744C234.559 240.926 234.439 241.107 234.322 241.288C234.27 241.308 234.221 241.32 234.168 241.328C233.923 241.874 233.343 241.262 233.052 241.649C232.712 241.467 232.365 241.306 232.005 241.181C231.645 241.056 231.274 240.967 230.887 240.933H230.885C230.713 241.095 230.571 241.286 230.412 241.46C230.253 241.634 230.075 241.788 229.835 241.872C229.674 242.028 229.468 241.984 229.272 241.994C229.025 242.051 228.778 242.107 228.531 242.161C228.436 242.242 228.34 242.32 228.247 242.401C228.15 242.869 227.905 243.239 227.445 243.386C227.076 243.504 227.063 243.102 226.902 242.918C226.885 242.884 226.87 242.852 226.855 242.818C226.789 242.788 226.723 242.759 226.655 242.727C226.202 242.575 225.867 242.193 225.388 242.087C225.336 242.036 225.29 241.984 225.243 241.935C225.224 241.935 225.204 241.938 225.185 241.938C224.854 241.938 224.544 241.823 224.24 241.636L224.213 241.624C223.69 241.639 223.421 241.293 223.237 240.882C223.11 240.593 223.017 240.33 222.626 240.441C222.344 240.698 222.112 240.561 221.889 240.35C221.904 240.299 221.889 240.249 221.858 240.208C221.77 240.11 221.684 240.009 221.615 239.894C221.586 239.826 221.564 239.755 221.547 239.686C221.464 239.654 221.381 239.639 221.3 239.639C220.882 239.639 220.497 240.004 220.082 240.049C220.016 240.213 219.947 240.377 219.879 240.539C219.291 240.553 218.704 240.568 218.117 240.583C217.88 240.921 217.706 241.342 217.391 241.575C216.892 241.945 216.904 242.394 216.967 242.898C216.708 243.048 216.39 243.119 216.263 243.437C216.048 243.55 215.825 243.648 215.637 243.79C215.448 243.93 215.294 244.109 215.226 244.381C215.03 244.489 214.832 244.599 214.634 244.709C214.511 244.856 214.384 244.817 214.276 244.697C214.174 244.579 214.232 244.415 214.193 244.28C214.059 243.839 213.856 243.567 213.413 244.011C213.347 244.065 213.281 244.116 213.212 244.17C213.095 244.405 213.075 244.641 213.207 244.878C213.156 244.893 213.105 244.905 213.053 244.913C212.801 245.51 212.483 245.596 212.116 245.013C211.913 244.69 211.585 244.543 211.289 244.347C211.28 244.298 211.267 244.249 211.253 244.2C211.304 244.136 211.319 244.062 211.321 243.986C211.243 243.856 211.17 243.719 211.101 243.575C210.891 243.278 210.639 242.996 210.746 242.585C210.761 242.45 210.773 242.315 210.776 242.178C210.783 242.117 210.783 242.055 210.781 241.994C210.768 241.913 210.756 241.837 210.69 241.823C210.389 241.707 210.091 241.592 209.79 241.477C209.45 241.717 209.178 241.489 208.892 241.352C208.809 241.556 208.701 241.632 208.579 241.632C208.457 241.632 208.315 241.553 208.173 241.46C208.114 241.409 208.06 241.355 208.009 241.296C208.004 241.291 207.999 241.284 207.997 241.276C207.246 241.262 206.504 241.124 205.751 241.154C205.602 241.159 205.477 241.053 205.453 240.887C205.438 240.882 205.423 240.877 205.411 240.872C205.061 241.129 204.589 240.945 204.229 241.166C204.107 241.217 203.987 241.281 203.867 241.34C203.153 241.301 203.048 241.168 203.361 240.558C203.361 240.558 203.354 240.551 203.351 240.546C202.938 240.825 202.417 240.796 201.979 241.004C201.81 241.075 201.651 241.168 201.46 241.163C201.218 241.105 200.961 241.078 200.763 240.926H200.758C200.685 240.963 200.609 240.987 200.528 240.999C199.745 241.046 198.921 240.945 198.317 241.629C198.265 241.698 198.209 241.756 198.143 241.813C198.082 241.855 198.016 241.889 197.947 241.918C197.925 242.036 197.813 242.131 197.71 242.2C197.397 242.411 197.289 242.734 197.145 243.043C196.876 243.332 196.523 243.403 196.154 243.433C196.132 243.415 196.108 243.406 196.083 243.391C196.051 243.668 195.875 243.727 195.618 243.658C195.672 244.217 195.264 244.535 194.96 244.91C194.769 245.064 194.544 245.224 194.307 245.15C193.189 244.812 192.122 245.219 191.041 245.359C190.552 245.422 190.185 245.361 190.112 244.812C190.06 244.415 189.786 244.496 189.529 244.425C188.972 244.271 188.292 244.467 187.859 243.928C187.144 244.442 186.601 244.454 186.065 243.969C185.906 243.651 185.799 243.315 185.706 242.972C185.574 242.193 185.187 241.725 184.326 241.83C182.787 242.32 181.354 241.781 179.91 241.374C179.766 241.333 179.683 241.186 179.612 241.051C179.607 241.036 179.605 241.021 179.6 241.007C179.517 240.985 179.438 240.95 179.365 240.904C179.34 240.884 179.318 240.862 179.296 240.84C178.562 241.203 177.87 241.088 177.33 240.512C177.315 241.078 176.931 241.163 176.419 241.088C176.094 240.931 175.793 241.632 175.465 241.303C175.397 241.296 175.331 241.279 175.267 241.252C175.108 241.159 174.969 241.026 174.776 240.999C174.763 241.271 174.78 241.607 174.347 241.004C174.274 240.904 174.157 240.838 174.044 240.921C173.645 241.222 173.288 241.07 172.931 240.926C172.828 240.948 172.723 240.96 172.615 240.958C172.54 240.982 172.461 240.997 172.381 241.004C172.019 240.943 171.656 241.124 171.294 241.11C171.086 241.149 170.886 241.205 170.702 241.32C170.72 241.355 170.737 241.389 170.742 241.426C170.751 241.514 170.742 241.595 170.707 241.676C170.663 241.749 170.602 241.808 170.531 241.855C170.524 241.857 170.516 241.857 170.507 241.857C170.512 242.342 170.154 242.337 169.726 242.242C169.487 242.136 169.249 242.011 168.988 242.198C168.359 242.644 167.686 242.384 167.023 242.337C167.004 242.408 166.96 242.465 166.891 242.504C166.475 242.55 166.101 242.494 165.856 242.104C165.773 241.999 165.727 241.881 165.744 241.747C165.746 241.742 165.749 241.739 165.753 241.737C165.629 241.639 165.563 241.507 165.538 241.352C165.506 241.088 165.511 240.825 165.563 240.568C165.479 240.323 165.267 240.296 164.812 240.465C164.183 240.695 163.425 241.061 162.874 240.232C162.874 240.23 162.879 240.23 162.881 240.225C161.935 239.725 162.008 240.757 161.609 241.078C161.575 241.122 161.543 241.139 161.509 241.134C161.509 241.144 161.504 241.154 161.502 241.163C161.267 241.649 160.939 242.038 160.501 242.374C159.821 242.898 159.156 242.903 158.437 242.521C158.314 242.455 158.18 242.425 158.045 242.391C157.935 242.575 157.854 242.803 157.615 242.786C157.6 242.795 157.59 242.805 157.573 242.815C157.297 242.849 157.133 242.744 157.098 242.487C156.812 242.739 156.374 242.555 156.078 242.781C155.533 242.984 154.916 243.011 154.481 243.484C154.383 243.587 154.219 243.589 154.082 243.501C154.219 243.849 154.146 244.128 153.823 244.334C153.661 244.373 153.5 244.393 153.346 244.376C153.155 244.474 152.993 244.606 152.952 244.878C152.759 245.131 152.587 245.403 152.37 245.628C152.181 245.819 151.949 246.128 151.702 245.677C151.401 245.817 151.2 245.523 150.961 245.398C150.628 245.302 150.305 245.341 150.014 245.52C149.138 246.059 148.316 245.885 147.514 245.356C147.112 245.06 146.496 245.216 146.158 244.792C146.266 245.231 145.823 245.329 145.628 245.579C145.559 245.631 145.481 245.667 145.395 245.687C145.248 245.689 145.109 245.707 144.974 245.733C144.94 245.758 144.906 245.782 144.872 245.807C144.881 245.849 144.889 245.893 144.896 245.934C144.791 246.91 144.223 246.554 143.724 246.397C143.741 246.415 143.759 246.427 143.773 246.444C143.847 246.567 143.859 246.699 143.859 246.836C143.859 246.929 143.837 247.017 143.8 247.101C143.536 247.716 143.174 248.191 142.406 248.115C142.056 248.081 141.828 248.407 141.518 248.5C141.518 248.524 141.51 248.544 141.508 248.566C141.483 248.664 141.442 248.75 141.381 248.828C140.877 249.206 140.356 249.514 139.685 249.5C138.893 249.483 138.592 249.191 138.668 248.417C138.631 248.358 138.597 248.294 138.565 248.228C138.563 248.223 138.56 248.218 138.56 248.213C138.35 248.218 138.122 248.194 138.068 248.51C137.645 248.929 137.234 249.367 136.571 249.343C136.557 249.36 136.542 249.377 136.53 249.399C136.52 249.409 136.51 249.421 136.5 249.431C136.52 249.507 136.517 249.588 136.495 249.671C136.356 249.943 136.158 250.139 135.835 250.164C135.431 249.96 134.91 249.919 134.668 249.49H134.661C134.521 249.497 134.384 249.492 134.247 249.463L134.115 249.323C133.824 249.512 133.518 249.362 133.401 249.13C133.188 248.711 132.841 248.642 132.486 248.539C132.562 248.701 132.527 248.85 132.405 248.988C132.378 249.01 132.349 249.029 132.32 249.049C132.327 249.11 132.302 249.171 132.244 249.233C131.801 249.264 131.343 249.208 131.099 249.691C131.089 249.764 131.057 249.826 131.013 249.882C130.972 249.955 130.913 250.009 130.837 250.046C130.727 250.134 130.61 250.22 130.551 250.333C130.509 250.411 130.46 250.48 130.406 250.548C129.668 251.009 129.362 251.81 128.912 252.494C128.799 252.668 128.731 252.864 128.537 252.974C128.454 253.004 128.369 253.016 128.281 253.011C128.237 253.001 128.193 252.984 128.153 252.964C128.31 253.3 128.141 253.486 127.774 253.572C127.307 253.68 126.837 253.722 126.37 253.565C126.346 253.501 126.324 253.445 126.306 253.388C126.302 253.396 126.299 253.403 126.297 253.41C125.761 253.861 125.083 254.109 124.638 254.707C124.379 255.052 124.029 255.145 123.503 254.824C123.077 254.562 122.422 254.675 121.852 254.645C121.717 254.932 121.509 254.986 121.235 254.839V254.851C121.081 255.006 120.917 255.001 120.751 254.888C120.751 254.888 120.743 254.893 120.741 254.895C120.746 254.903 120.753 254.91 120.758 254.917C120.741 255.412 120.521 255.547 120.068 255.332C119.909 255.256 119.767 255.167 119.643 255.057C119.547 255.204 119.449 255.346 119.251 255.368C118.676 255.297 118.466 254.91 118.366 254.43C118.202 254.418 118.065 254.342 117.933 254.251C117.837 254.214 117.742 254.185 117.642 254.16C117.289 253.952 116.636 254.07 116.756 253.347C116.795 253.288 116.846 253.244 116.903 253.21C116.443 253.058 116.083 252.832 116.152 252.31C115.902 252.553 115.658 252.467 115.376 252.156C114.987 251.727 114.64 251.244 114.087 250.997C113.82 250.931 113.659 251.102 113.493 251.266C113.429 251.323 113.356 251.362 113.277 251.389C112.622 251.435 112.196 250.933 111.741 250.624C111.257 250.298 110.914 250.169 110.395 250.458C110.151 250.595 109.852 250.725 109.552 250.578C109.759 251.029 109.312 251.154 109.109 251.399C109.045 251.433 108.979 251.46 108.913 251.48C108.957 251.747 108.73 251.913 108.485 252.053C108.16 252.239 107.815 252.394 107.538 252.656C107.457 252.707 107.372 252.737 107.279 252.749C106.545 252.715 106.017 253.212 105.407 253.496C104.93 253.719 104.507 253.758 104.074 253.44C104.033 253.406 104.001 253.361 103.976 253.317C103.372 253.815 102.685 253.952 102.051 253.714C102.046 253.727 102.041 253.736 102.034 253.749C101.98 253.856 101.902 253.945 101.806 254.016C101.85 254.141 101.848 254.28 101.841 254.422C101.628 256.074 100.434 256.772 99.0592 257.294C98.9198 257.292 98.795 257.314 98.68 257.353C98.4354 257.549 98.2005 257.772 97.9168 257.882C97.7847 258 97.6501 258.115 97.5009 258.206C97.3615 258.277 97.2196 258.35 97.0801 258.426C96.789 258.5 96.63 258.767 96.3854 258.912C96.3413 258.926 96.2973 258.934 96.2533 258.936C96.3389 259.147 96.312 259.34 96.0404 259.402C95.7444 259.47 95.7077 259.218 95.7249 259.005C95.7542 258.63 95.5194 258.402 95.2992 258.162C95.1964 257.865 95.0154 257.569 95.2111 257.267C94.9347 257.206 94.761 256.973 94.5311 256.836C94.4797 256.807 94.4332 256.772 94.3867 256.738C94.1935 256.633 94.0589 256.488 93.9708 256.312C93.8803 256.187 93.7996 256.052 93.7238 255.915C93.6846 255.836 93.6651 255.755 93.6553 255.672C93.6161 255.66 93.5794 255.645 93.5403 255.635C93.4571 255.606 93.3837 255.564 93.3177 255.51C93.2859 255.476 93.259 255.439 93.232 255.4C92.5911 255.496 92.1214 255.27 91.911 254.528C91.8107 254.17 91.5612 253.996 91.1722 254.033C90.1962 254.119 89.2201 254.202 88.3932 254.819C88.3492 254.883 88.3027 254.949 88.2562 255.013C88.3272 255.51 87.8648 255.596 87.5957 255.738C87.3878 255.846 87.2483 255.501 87.1407 255.29C87.0893 255.187 86.9548 255.02 86.9499 255.02C86.2845 255.464 85.4601 254.932 84.802 255.373C84.7433 255.434 84.687 255.498 84.6308 255.559C84.5818 255.939 84.1635 256.184 84.2442 256.611C84.0754 256.689 83.9042 256.765 83.7354 256.841C83.5764 256.941 83.4614 256.983 83.3782 256.983C83.0798 256.983 83.1605 256.466 82.9893 256.29C82.5734 256.29 82.1575 256.282 81.7416 256.277V256.282C81.7465 256.469 81.7514 256.655 81.7563 256.841C81.6903 257.015 81.6267 257.189 81.5631 257.363C81.1545 257.804 80.6702 257.831 80.1735 257.569C79.9729 257.466 79.7821 257.385 79.5693 257.37C79.5693 257.373 79.5693 257.378 79.5644 257.38C79.5057 257.439 79.4421 257.485 79.3712 257.527C79.3222 257.537 79.2709 257.544 79.2195 257.547C79.1705 257.772 79.0678 257.963 78.8819 258.103C78.8109 258.277 78.7424 258.453 78.6715 258.627C78.1969 259.747 77.671 259.865 76.827 259.068C76.575 258.831 76.2619 258.654 75.9756 258.451H75.9732C75.9047 258.747 75.8362 259.041 75.7653 259.338C75.7114 259.397 75.6576 259.458 75.6038 259.519C75.2295 259.522 75.1194 259.176 74.8919 258.985C74.4027 258.877 73.8889 258.877 73.4241 258.659C72.5973 259.157 72.4064 258.507 72.1789 257.924C71.2591 258.642 70.5057 258.093 69.7791 257.574C69.3901 257.297 69.0403 257.071 68.5706 257.36C68.2746 257.091 67.9786 256.956 67.6826 256.956C67.3866 256.956 67.0808 257.096 66.7799 257.373L66.7872 257.38C66.6869 257.618 66.4961 257.716 66.2539 257.738C65.8478 257.914 65.4393 258.081 65.0406 258.272C64.8008 258.387 64.6222 258.321 64.5219 258.108C64.1746 257.368 63.7489 257.407 63.3012 257.637C63.1936 257.711 63.0933 257.809 63.0003 257.941C62.9392 258.044 62.8878 258.154 62.8364 258.262C62.7655 258.387 62.697 258.51 62.6285 258.635C62.1123 258.956 61.6548 259.335 61.3026 259.833C61.2952 259.855 61.2879 259.877 61.283 259.902C61.2732 259.933 61.261 259.963 61.2487 259.992C61.2536 260.024 61.2487 260.058 61.2243 260.095C61.1998 260.147 61.1802 260.198 61.1656 260.252C61.1044 260.296 61.0457 260.338 60.9845 260.382C60.916 260.453 60.8427 260.521 60.7668 260.588C60.7277 260.6 60.6861 260.61 60.6469 260.622C60.3142 260.514 60.0036 260.531 59.7443 260.798C59.688 260.97 59.6268 261.048 59.5681 261.048C59.5021 261.048 59.436 260.96 59.37 260.806C59.0544 260.838 59.0324 261.173 58.8318 261.323C58.4183 261.573 58.2006 261.406 58.1077 260.98C57.0435 260.798 56.0478 261.004 55.0987 261.477C55.0987 261.489 55.1085 261.502 55.1109 261.516C55.0375 261.582 54.9617 261.651 54.8883 261.717C54.8222 261.832 54.7562 261.948 54.6901 262.06C54.355 262.68 53.8853 262.406 53.4327 262.249C53.4327 262.212 53.4327 262.175 53.4327 262.139C53.4278 262.141 53.4254 262.141 53.4229 262.144C52.1631 262.541 50.8983 262.911 49.5553 262.866C49.2226 262.854 48.9828 262.734 48.8605 262.416C48.4202 261.95 47.9701 261.497 47.2606 261.494C47.2117 261.509 47.1652 261.521 47.1163 261.533C47.0992 261.778 46.9377 261.93 46.7689 262.077C46.7665 262.193 46.764 262.31 46.7616 262.425C45.947 263.17 44.944 262.979 43.9801 263.004C43.6401 263.013 43.5716 262.688 43.3465 262.568C43.4003 262.46 43.4566 262.352 43.5129 262.244C43.5031 261.987 43.437 261.769 43.1459 261.703C43.0358 261.764 42.9257 261.832 42.8132 261.832C42.7398 261.832 42.664 261.803 42.5881 261.72C42.4193 261.085 41.502 260.744 41.8738 259.897C41.8127 259.84 41.7539 259.781 41.6952 259.723C41.3846 259.664 41.1888 259.502 41.1717 259.166C41.0518 258.956 40.8757 258.833 40.6286 258.818C40.2886 259.536 39.814 259.732 39.1486 259.203C38.4783 258.88 37.9597 259.397 37.3701 259.517C37.1964 259.49 37.0227 259.46 36.8466 259.434C36.5286 259.688 36.2057 259.938 35.8901 260.2C35.6137 260.428 35.3348 260.517 35.0265 260.262C34.9629 260.267 34.9018 260.269 34.8382 260.272L34.8504 260.249C34.1875 260.553 33.5857 260.823 33.116 259.887C32.93 259.519 32.3429 259.772 31.9442 259.688C31.3497 260.029 31.4035 259.262 31.061 259.169C30.8409 258.995 30.6378 258.72 30.3883 258.738C30.3834 258.845 30.3736 258.953 30.3712 259.063C30.3027 259.478 30.0654 259.799 29.7841 260.093C29.6446 260.252 29.4318 260.333 29.3193 260.521C29.2679 260.607 29.2116 260.671 29.1554 260.722C28.9596 261.073 28.6196 261.068 28.2575 260.803C27.9689 260.59 27.69 260.502 27.3964 260.519C27.2912 260.566 27.1885 260.639 27.0858 260.757C27.0148 260.803 26.9365 260.835 26.8534 260.855C26.824 260.852 26.7995 260.847 26.7751 260.842C26.6307 260.999 26.4497 261.097 26.2907 261.007C25.6424 260.634 25.1996 260.904 24.7666 261.23C24.7373 261.364 24.7153 261.497 24.7471 261.634C24.5881 262.085 24.456 262.56 23.8933 262.68C23.9471 262.778 23.9349 262.866 23.8272 262.947L23.8346 262.955C23.7783 263.129 23.6951 263.281 23.5215 263.359C23.5215 263.722 23.2254 263.918 22.9441 264.121C22.7215 264.158 22.5111 264.241 22.2958 264.307C22.3056 264.346 22.2861 264.386 22.2322 264.425C22.2273 264.476 22.22 264.525 22.2127 264.574C22.1001 264.582 21.9901 264.592 21.8775 264.599C21.4421 264.905 21.2439 264.56 21.0066 264.293C20.4929 263.709 20.0941 262.96 19.1596 262.96C19.1058 262.967 19.0496 262.972 18.9957 262.977C18.9395 263.021 18.8857 263.028 18.8343 262.996C18.7976 263.036 18.7609 263.082 18.7291 263.136C18.2936 263.325 17.7579 262.808 17.3714 263.335C17.3543 263.386 17.3396 263.44 17.3274 263.494C17.2662 263.535 17.205 263.575 17.1439 263.614C16.8136 264.001 16.4883 264.393 16.0846 264.704C15.8718 264.792 15.6345 264.78 15.5073 264.616C14.9397 263.891 14.0077 263.543 13.5747 262.675C13.2664 262.063 12.8946 262.648 12.5497 262.675C12.5497 262.697 12.5423 262.717 12.5399 262.739C12.2219 263.259 11.7473 263.477 11.1602 263.624C10.3406 263.829 9.57248 264.207 8.73584 264.398C8.21477 264.516 8.17319 265.305 7.60808 265.476C7.39036 265.633 7.21422 265.834 7.0332 266.025C6.42895 266.236 6.25771 265.675 6.00329 265.378C5.80025 265.143 5.61188 265.011 5.39905 264.998C5.24493 265.04 5.0957 265.106 4.94159 265.182C4.95137 265.498 4.78502 265.628 4.46944 265.493C4.23215 265.395 4.02177 265.346 3.78936 265.466C3.73799 265.528 3.68906 265.591 3.64014 265.653C3.19491 265.356 2.96495 264.704 2.302 264.761C2.302 264.766 2.302 264.768 2.302 264.773C2.09161 265.258 1.78093 265.211 1.48003 264.888C1.22806 264.621 1.18158 264.261 1.0984 263.903C0.954068 263.281 0.792611 262.624 0 262.465V0H272Z" fill="#2A2A2A"/>
<path d="M272 219.933V240.455C271.993 240.534 271.985 240.615 271.978 240.695C271.919 240.691 271.861 240.686 271.804 240.678C271.506 240.933 271.207 241.188 270.909 241.443L270.527 241.457C270.664 242.077 270.236 242.024 269.852 242.024C269.605 241.622 269.231 241.506 268.822 241.46V241.482C268.565 241.778 268.223 241.918 267.858 242.019C267.807 242.028 267.756 242.031 267.704 242.031C267.477 242.156 267.257 242.32 266.98 242.251C266.975 242.455 266.97 242.658 266.965 242.862C266.843 242.871 266.721 242.879 266.601 242.888C266.44 243.114 266.28 243.342 266.119 243.57C266.021 243.717 265.918 243.859 265.789 243.964C265.659 244.07 265.507 244.141 265.312 244.15C265.322 244.214 265.331 244.278 265.341 244.339C265.275 244.354 265.211 244.366 265.148 244.378C265.033 244.611 264.918 244.844 264.803 245.077C264.891 245.155 264.979 245.233 265.067 245.312C264.287 245.542 263.998 246.628 263.01 246.495C262.437 246.829 261.823 247.101 261.366 247.603C261.3 247.623 261.234 247.642 261.168 247.662C261.124 247.762 261.077 247.863 261.033 247.963C261.124 248.206 261.062 248.439 260.982 248.669C260.517 248.919 260.6 249.693 259.942 249.759C259.932 249.821 259.92 249.884 259.91 249.946C259.707 249.968 259.497 250.019 259.352 249.806C259.108 249.818 259.049 250.012 258.973 250.193C258.364 250.806 258.083 251.629 257.618 252.335C257.559 252.33 257.501 252.332 257.442 252.342C257.214 252.342 256.984 252.34 256.784 252.278C256.581 252.215 256.405 252.092 256.28 251.847C255.698 251.837 255.969 251.291 255.776 251.038L255.262 251.002C254.974 250.678 255.169 250.024 254.533 249.943C254.286 249.852 254.002 250.078 253.692 249.789C254.201 249.676 254.785 249.588 254.315 248.897C254.264 248.899 254.21 248.894 254.159 248.885C253.758 249.122 253.567 248.76 253.344 248.566C253.149 248.397 253.039 248.118 252.711 248.164C252.667 248.103 252.623 248.044 252.581 247.983C252.623 247.86 252.664 247.735 252.703 247.613C252.596 247.412 252.459 247.26 252.199 247.319C252.124 247.402 252.053 247.449 251.989 247.449C251.918 247.449 251.852 247.39 251.798 247.26C251.434 247.106 251.05 246.971 250.932 246.522C250.829 246.067 250.585 245.702 250.235 245.4C250.203 245.297 250.171 245.197 250.14 245.094C249.795 244.91 249.45 244.724 249.105 244.538C248.425 244.427 247.847 243.932 247.118 244.013H247.069C246.864 244.013 246.783 243.864 246.725 243.685C246.402 243.633 246.223 243.442 246.181 243.119C246.025 243.121 245.866 243.124 245.709 243.126H245.707C245.298 243.3 245.198 243.038 245.139 242.719C245.526 242.188 244.738 242.026 244.738 241.617C244.738 241.58 244.743 241.541 244.758 241.499C244.016 241.136 244.166 240.343 243.916 239.745C243.831 239.539 243.99 239.213 243.74 239.095C243.429 238.951 243.373 239.308 243.236 239.475C243.121 239.615 243.001 239.703 242.862 239.703C242.788 239.703 242.71 239.678 242.622 239.625C242.5 239.678 242.38 239.735 242.258 239.789C242.204 239.816 242.15 239.843 242.096 239.87C241.844 239.965 241.707 240.365 241.37 240.23C241.247 240.347 241.122 240.463 240.998 240.578C240.929 240.678 240.858 240.776 240.79 240.874C240.435 240.83 240.08 240.786 239.728 240.74C239.131 240.409 238.62 240.455 238.329 241.134C238.17 241.504 237.864 241.443 237.583 241.492C237.428 241.808 237.167 241.874 236.851 241.808L236.675 241.617C236.621 241.624 236.567 241.624 236.511 241.617C236.137 241.428 235.679 241.418 235.513 240.872C235.386 240.458 234.987 240.622 234.679 240.744C234.559 240.926 234.439 241.107 234.322 241.288C234.27 241.308 234.221 241.32 234.168 241.328C233.923 241.874 233.343 241.261 233.052 241.649C232.712 241.467 232.365 241.306 232.005 241.181C231.645 241.056 231.274 240.967 230.887 240.933H230.885C230.713 241.095 230.571 241.286 230.412 241.46C230.253 241.634 230.075 241.788 229.835 241.872C229.674 242.028 229.468 241.984 229.272 241.994C229.025 242.05 228.778 242.107 228.531 242.161C228.436 242.242 228.34 242.32 228.247 242.401C228.15 242.869 227.905 243.239 227.445 243.386C227.076 243.504 227.063 243.102 226.902 242.918C226.885 242.884 226.87 242.852 226.855 242.817C226.789 242.788 226.723 242.759 226.655 242.727C226.202 242.575 225.867 242.193 225.388 242.087C225.336 242.036 225.29 241.984 225.243 241.935C225.224 241.935 225.204 241.938 225.185 241.938C224.854 241.938 224.544 241.823 224.24 241.636L224.213 241.624C223.69 241.639 223.421 241.293 223.237 240.882C223.11 240.592 223.017 240.33 222.626 240.441C222.344 240.698 222.112 240.561 221.889 240.35C221.904 240.298 221.889 240.249 221.858 240.208C221.77 240.11 221.684 240.009 221.615 239.894C221.586 239.826 221.564 239.754 221.547 239.686C221.464 239.654 221.381 239.639 221.3 239.639C220.882 239.639 220.497 240.004 220.082 240.049C220.016 240.213 219.947 240.377 219.879 240.539C219.291 240.553 218.704 240.568 218.117 240.583C217.88 240.921 217.706 241.342 217.391 241.575C216.892 241.945 216.904 242.394 216.967 242.898C216.708 243.048 216.39 243.119 216.263 243.437C216.048 243.55 215.825 243.648 215.637 243.79C215.448 243.93 215.294 244.109 215.226 244.381C215.03 244.489 214.832 244.599 214.634 244.709C214.511 244.856 214.384 244.817 214.276 244.697C214.174 244.579 214.232 244.415 214.193 244.28C214.059 243.839 213.856 243.567 213.413 244.011C213.347 244.065 213.281 244.116 213.212 244.17C213.095 244.405 213.075 244.641 213.207 244.878C213.156 244.893 213.105 244.905 213.053 244.912C212.801 245.51 212.483 245.596 212.116 245.013C211.913 244.69 211.585 244.542 211.289 244.346C211.28 244.297 211.267 244.248 211.253 244.199C211.304 244.136 211.319 244.062 211.321 243.986C211.243 243.856 211.17 243.719 211.101 243.575C210.891 243.278 210.639 242.996 210.746 242.585C210.761 242.45 210.773 242.315 210.776 242.178C210.783 242.117 210.783 242.055 210.781 241.994C210.768 241.913 210.756 241.837 210.69 241.823C210.389 241.707 210.091 241.592 209.79 241.477C209.45 241.717 209.178 241.489 208.892 241.352C208.809 241.555 208.701 241.631 208.579 241.631C208.457 241.631 208.315 241.553 208.173 241.46C208.114 241.408 208.06 241.355 208.009 241.296C208.004 241.291 207.999 241.283 207.997 241.276C207.246 241.261 206.504 241.124 205.751 241.154C205.602 241.159 205.477 241.053 205.453 240.887C205.438 240.882 205.423 240.877 205.411 240.872C205.061 241.129 204.589 240.945 204.229 241.166C204.107 241.217 203.987 241.281 203.867 241.34C203.153 241.301 203.048 241.168 203.361 240.558C203.361 240.558 203.354 240.551 203.351 240.546C202.938 240.825 202.417 240.796 201.979 241.004C201.81 241.075 201.651 241.168 201.46 241.163C201.218 241.105 200.961 241.078 200.763 240.926H200.758C200.685 240.962 200.609 240.987 200.528 240.999C199.745 241.046 198.921 240.945 198.317 241.629C198.265 241.698 198.209 241.756 198.143 241.813C198.082 241.854 198.016 241.889 197.947 241.918C197.925 242.036 197.813 242.131 197.71 242.2C197.397 242.411 197.289 242.734 197.145 243.043C196.876 243.332 196.523 243.403 196.154 243.432C196.132 243.415 196.108 243.406 196.083 243.391C196.051 243.668 195.875 243.727 195.618 243.658C195.672 244.217 195.264 244.535 194.96 244.91C194.769 245.064 194.544 245.224 194.307 245.15C193.189 244.812 192.122 245.219 191.041 245.358C190.552 245.422 190.185 245.361 190.112 244.812C190.06 244.415 189.786 244.496 189.529 244.425C188.972 244.271 188.292 244.467 187.859 243.927C187.144 244.442 186.601 244.454 186.065 243.969C185.906 243.651 185.799 243.315 185.706 242.972C185.574 242.193 185.187 241.725 184.326 241.83C182.787 242.32 181.354 241.781 179.91 241.374C179.766 241.332 179.683 241.185 179.612 241.051C179.607 241.036 179.605 241.021 179.6 241.007C179.517 240.985 179.438 240.95 179.365 240.904C179.34 240.884 179.318 240.862 179.296 240.84C178.562 241.203 177.87 241.087 177.33 240.512C177.315 241.078 176.931 241.163 176.419 241.087C176.094 240.931 175.793 241.631 175.465 241.303C175.397 241.296 175.331 241.279 175.267 241.252C175.108 241.159 174.969 241.026 174.776 240.999C174.763 241.271 174.78 241.607 174.347 241.004C174.274 240.904 174.157 240.838 174.044 240.921C173.645 241.222 173.288 241.07 172.931 240.926C172.828 240.948 172.723 240.96 172.615 240.958C172.54 240.982 172.461 240.997 172.381 241.004C172.019 240.943 171.656 241.124 171.294 241.11C171.086 241.149 170.886 241.205 170.702 241.32C170.72 241.355 170.737 241.389 170.742 241.426C170.751 241.514 170.742 241.595 170.707 241.676C170.663 241.749 170.602 241.808 170.531 241.854C170.524 241.857 170.516 241.857 170.507 241.857C170.512 242.342 170.154 242.337 169.726 242.242C169.487 242.136 169.249 242.011 168.988 242.197C168.359 242.643 167.686 242.384 167.023 242.337C167.004 242.408 166.96 242.465 166.891 242.504C166.475 242.55 166.101 242.494 165.856 242.104C165.773 241.999 165.727 241.881 165.744 241.747C165.746 241.742 165.749 241.739 165.753 241.737C165.629 241.639 165.563 241.506 165.538 241.352C165.506 241.087 165.511 240.825 165.563 240.568C165.479 240.323 165.267 240.296 164.812 240.465C164.183 240.695 163.425 241.061 162.874 240.232C162.874 240.23 162.879 240.23 162.881 240.225C161.935 239.725 162.008 240.757 161.609 241.078C161.575 241.122 161.543 241.139 161.509 241.134C161.509 241.144 161.504 241.154 161.502 241.163C161.267 241.649 160.939 242.038 160.501 242.374C159.821 242.898 159.156 242.903 158.437 242.521C158.314 242.455 158.18 242.425 158.045 242.391C157.935 242.575 157.854 242.803 157.615 242.786C157.6 242.795 157.59 242.805 157.573 242.815C157.297 242.849 157.133 242.744 157.098 242.487C156.812 242.739 156.374 242.555 156.078 242.781C155.533 242.984 154.916 243.011 154.481 243.484C154.383 243.587 154.219 243.589 154.082 243.501C154.219 243.849 154.146 244.128 153.823 244.334C153.661 244.373 153.5 244.393 153.346 244.376C153.155 244.474 152.993 244.606 152.952 244.878C152.759 245.131 152.587 245.403 152.37 245.628C152.181 245.819 151.949 246.128 151.702 245.677C151.401 245.817 151.2 245.523 150.961 245.398C150.628 245.302 150.305 245.341 150.014 245.52C149.138 246.059 148.316 245.885 147.514 245.356C147.112 245.06 146.496 245.216 146.158 244.792C146.266 245.231 145.823 245.329 145.628 245.579C145.559 245.63 145.481 245.667 145.395 245.687C145.248 245.689 145.109 245.706 144.974 245.733C144.94 245.758 144.906 245.782 144.872 245.807C144.881 245.849 144.889 245.893 144.896 245.934C144.791 246.91 144.223 246.554 143.724 246.397C143.741 246.415 143.759 246.427 143.773 246.444C143.847 246.567 143.859 246.699 143.859 246.836C143.859 246.929 143.837 247.017 143.8 247.101C143.536 247.716 143.174 248.191 142.406 248.115C142.056 248.081 141.828 248.407 141.518 248.5C141.518 248.524 141.51 248.544 141.508 248.566C141.483 248.664 141.442 248.75 141.381 248.828C140.877 249.206 140.356 249.514 139.685 249.5C138.893 249.482 138.592 249.191 138.668 248.417C138.631 248.358 138.597 248.294 138.565 248.228C138.563 248.223 138.56 248.218 138.56 248.213C138.35 248.218 138.122 248.194 138.068 248.51C137.645 248.929 137.234 249.367 136.571 249.343C136.557 249.36 136.542 249.377 136.53 249.399C136.52 249.409 136.51 249.421 136.5 249.431C136.52 249.507 136.517 249.588 136.495 249.671C136.356 249.943 136.158 250.139 135.835 250.164C135.431 249.96 134.91 249.919 134.668 249.49H134.661C134.521 249.497 134.384 249.492 134.247 249.463L134.115 249.323C133.824 249.512 133.518 249.362 133.401 249.13C133.188 248.711 132.841 248.642 132.486 248.539C132.562 248.701 132.527 248.85 132.405 248.987C132.378 249.01 132.349 249.029 132.32 249.049C132.327 249.11 132.302 249.171 132.244 249.233C131.801 249.264 131.343 249.208 131.099 249.691C131.089 249.764 131.057 249.826 131.013 249.882C130.972 249.955 130.913 250.009 130.837 250.046C130.727 250.134 130.61 250.22 130.551 250.333C130.509 250.411 130.46 250.48 130.406 250.548C129.668 251.009 129.362 251.81 128.912 252.494C128.799 252.668 128.731 252.864 128.537 252.974C128.454 253.004 128.369 253.016 128.281 253.011C128.237 253.001 128.193 252.984 128.153 252.964C128.31 253.3 128.141 253.486 127.774 253.572C127.307 253.68 126.837 253.722 126.37 253.565C126.346 253.501 126.324 253.445 126.306 253.388C126.302 253.396 126.299 253.403 126.297 253.41C125.761 253.861 125.083 254.109 124.638 254.707C124.379 255.052 124.029 255.145 123.503 254.824C123.077 254.562 122.422 254.675 121.852 254.645C121.717 254.932 121.509 254.986 121.235 254.839V254.851C121.081 255.006 120.917 255.001 120.751 254.888C120.751 254.888 120.743 254.893 120.741 254.895C120.746 254.903 120.753 254.91 120.758 254.917C120.741 255.412 120.521 255.547 120.068 255.332C119.909 255.256 119.767 255.167 119.643 255.057C119.547 255.204 119.449 255.346 119.251 255.368C118.676 255.297 118.466 254.91 118.366 254.43C118.202 254.417 118.065 254.342 117.933 254.251C117.837 254.214 117.742 254.185 117.642 254.16C117.289 253.952 116.636 254.07 116.756 253.347C116.795 253.288 116.846 253.244 116.903 253.209C116.443 253.058 116.083 252.832 116.152 252.31C115.902 252.553 115.658 252.467 115.376 252.156C114.987 251.727 114.64 251.244 114.087 250.997C113.82 250.931 113.659 251.102 113.493 251.266C113.429 251.323 113.356 251.362 113.277 251.389C112.622 251.435 112.196 250.933 111.741 250.624C111.257 250.298 110.914 250.169 110.395 250.458C110.151 250.595 109.852 250.725 109.552 250.578C109.759 251.029 109.312 251.154 109.109 251.399C109.045 251.433 108.979 251.46 108.913 251.48C108.957 251.747 108.73 251.913 108.485 252.053C108.16 252.239 107.815 252.393 107.538 252.656C107.457 252.707 107.372 252.737 107.279 252.749C106.545 252.714 106.017 253.212 105.407 253.496C104.93 253.719 104.507 253.758 104.074 253.44C104.033 253.406 104.001 253.361 103.976 253.317C103.372 253.815 102.685 253.952 102.051 253.714C102.046 253.727 102.041 253.736 102.034 253.749C101.98 253.856 101.902 253.945 101.806 254.016C101.85 254.141 101.848 254.28 101.841 254.422C101.628 256.074 100.434 256.772 99.0592 257.294C98.9198 257.292 98.795 257.314 98.68 257.353C98.4354 257.549 98.2005 257.772 97.9168 257.882C97.7847 258 97.6501 258.115 97.5009 258.206C97.3615 258.277 97.2196 258.35 97.0801 258.426C96.789 258.5 96.63 258.767 96.3854 258.911C96.3413 258.926 96.2973 258.934 96.2533 258.936C96.3389 259.147 96.312 259.34 96.0404 259.402C95.7444 259.47 95.7077 259.218 95.7249 259.005C95.7542 258.63 95.5194 258.402 95.2992 258.162C95.1964 257.865 95.0154 257.569 95.2111 257.267C94.9347 257.206 94.761 256.973 94.5311 256.836C94.4797 256.807 94.4332 256.772 94.3867 256.738C94.1935 256.633 94.0589 256.488 93.9708 256.312C93.8803 256.187 93.7996 256.052 93.7238 255.915C93.6846 255.836 93.665 255.755 93.6553 255.672C93.6161 255.66 93.5794 255.645 93.5403 255.635C93.4571 255.606 93.3837 255.564 93.3177 255.51C93.2859 255.476 93.259 255.439 93.232 255.4C92.5911 255.496 92.1214 255.27 91.911 254.528C91.8107 254.17 91.5612 253.996 91.1722 254.033C90.1962 254.119 89.2201 254.202 88.3932 254.819C88.3492 254.883 88.3027 254.949 88.2562 255.013C88.3272 255.51 87.8648 255.596 87.5957 255.738C87.3878 255.846 87.2483 255.501 87.1407 255.29C87.0893 255.187 86.9548 255.02 86.9499 255.02C86.2845 255.464 85.4601 254.932 84.802 255.373C84.7433 255.434 84.687 255.498 84.6308 255.559C84.5818 255.939 84.1635 256.184 84.2442 256.611C84.0754 256.689 83.9042 256.765 83.7354 256.841C83.5764 256.941 83.4614 256.983 83.3782 256.983C83.0798 256.983 83.1605 256.466 82.9893 256.29C82.5734 256.29 82.1575 256.282 81.7416 256.277V256.282C81.7465 256.468 81.7514 256.655 81.7563 256.841C81.6903 257.015 81.6267 257.189 81.5631 257.363C81.1545 257.804 80.6702 257.831 80.1735 257.569C79.9729 257.466 79.7821 257.385 79.5693 257.37C79.5693 257.373 79.5693 257.378 79.5644 257.38C79.5057 257.439 79.4421 257.485 79.3712 257.527C79.3222 257.537 79.2708 257.544 79.2195 257.547C79.1705 257.772 79.0678 257.963 78.8819 258.103C78.8109 258.277 78.7424 258.453 78.6715 258.627C78.1969 259.747 77.6709 259.865 76.827 259.068C76.575 258.831 76.2619 258.654 75.9756 258.451H75.9732C75.9047 258.747 75.8362 259.041 75.7653 259.338C75.7114 259.397 75.6576 259.458 75.6038 259.519C75.2295 259.522 75.1194 259.176 74.8919 258.985C74.4027 258.877 73.8889 258.877 73.4241 258.659C72.5973 259.157 72.4064 258.507 72.1789 257.924C71.2591 258.642 70.5057 258.093 69.7791 257.574C69.3901 257.297 69.0403 257.071 68.5706 257.36C68.2746 257.091 67.9786 256.956 67.6826 256.956C67.3866 256.956 67.0808 257.096 66.7799 257.373L66.7872 257.38C66.6869 257.618 66.4961 257.716 66.2539 257.738C65.8478 257.914 65.4393 258.081 65.0406 258.272C64.8008 258.387 64.6222 258.321 64.5219 258.108C64.1746 257.368 63.7489 257.407 63.3012 257.637C63.1936 257.711 63.0933 257.809 63.0003 257.941C62.9392 258.044 62.8878 258.154 62.8364 258.262C62.7655 258.387 62.697 258.51 62.6285 258.635C62.1123 258.956 61.6548 259.335 61.3026 259.833C61.2952 259.855 61.2879 259.877 61.283 259.901C61.2732 259.933 61.261 259.963 61.2487 259.992C61.2536 260.024 61.2487 260.058 61.2243 260.095C61.1998 260.146 61.1802 260.198 61.1656 260.252C61.1044 260.296 61.0457 260.338 60.9845 260.382C60.916 260.453 60.8427 260.521 60.7668 260.588C60.7277 260.6 60.6861 260.61 60.6469 260.622C60.3142 260.514 60.0036 260.531 59.7443 260.798C59.688 260.97 59.6268 261.048 59.5681 261.048C59.5021 261.048 59.436 260.96 59.37 260.806C59.0544 260.837 59.0324 261.173 58.8318 261.323C58.4183 261.573 58.2006 261.406 58.1077 260.98C57.0435 260.798 56.0478 261.004 55.0987 261.477C55.0987 261.489 55.1085 261.502 55.1109 261.516C55.0375 261.582 54.9617 261.651 54.8883 261.717C54.8222 261.832 54.7562 261.948 54.6901 262.06C54.355 262.68 53.8853 262.406 53.4327 262.249C53.4327 262.212 53.4327 262.175 53.4327 262.139C53.4278 262.141 53.4254 262.141 53.4229 262.144C52.1631 262.541 50.8983 262.911 49.5553 262.866C49.2226 262.854 48.9828 262.734 48.8605 262.416C48.4202 261.95 47.9701 261.497 47.2606 261.494C47.2117 261.509 47.1652 261.521 47.1163 261.533C47.0992 261.778 46.9377 261.93 46.7689 262.077C46.7665 262.193 46.764 262.31 46.7616 262.425C45.947 263.17 44.944 262.979 43.9801 263.004C43.6401 263.013 43.5716 262.688 43.3465 262.567C43.4003 262.46 43.4566 262.352 43.5129 262.244C43.5031 261.987 43.437 261.769 43.1459 261.702C43.0358 261.764 42.9257 261.832 42.8132 261.832C42.7398 261.832 42.664 261.803 42.5881 261.72C42.4193 261.085 41.502 260.744 41.8738 259.897C41.8127 259.84 41.7539 259.781 41.6952 259.723C41.3846 259.664 41.1888 259.502 41.1717 259.166C41.0518 258.956 40.8757 258.833 40.6286 258.818C40.2886 259.536 39.814 259.732 39.1486 259.203C38.4783 258.88 37.9597 259.397 37.3701 259.517C37.1964 259.49 37.0227 259.46 36.8466 259.433C36.5286 259.688 36.2057 259.938 35.8901 260.2C35.6137 260.428 35.3348 260.516 35.0265 260.262C34.9629 260.267 34.9018 260.269 34.8382 260.271L34.8504 260.249C34.1875 260.553 33.5857 260.823 33.116 259.887C32.93 259.519 32.3429 259.772 31.9442 259.688C31.3497 260.029 31.4035 259.262 31.061 259.169C30.8409 258.995 30.6378 258.72 30.3883 258.738C30.3834 258.845 30.3736 258.953 30.3712 259.063C30.3027 259.478 30.0654 259.799 29.7841 260.093C29.6446 260.252 29.4318 260.333 29.3193 260.521C29.2679 260.607 29.2116 260.671 29.1554 260.722C28.9596 261.073 28.6196 261.068 28.2575 260.803C27.9689 260.59 27.69 260.502 27.3964 260.519C27.2912 260.566 27.1885 260.639 27.0858 260.757C27.0148 260.803 26.9365 260.835 26.8534 260.855C26.824 260.852 26.7995 260.847 26.7751 260.842C26.6307 260.999 26.4497 261.097 26.2907 261.007C25.6424 260.634 25.1996 260.904 24.7666 261.23C24.7373 261.364 24.7153 261.497 24.7471 261.634C24.5881 262.085 24.456 262.56 23.8933 262.68C23.9471 262.778 23.9349 262.866 23.8272 262.947L23.8346 262.955C23.7783 263.129 23.6951 263.281 23.5215 263.359C23.5215 263.722 23.2254 263.918 22.9441 264.121C22.7215 264.158 22.5111 264.241 22.2958 264.307C22.3056 264.346 22.2861 264.386 22.2322 264.425C22.2273 264.476 22.22 264.525 22.2127 264.574C22.1001 264.582 21.9901 264.591 21.8775 264.599C21.4421 264.905 21.2439 264.56 21.0066 264.293C20.4929 263.709 20.0941 262.96 19.1596 262.96C19.1058 262.967 19.0496 262.972 18.9957 262.977C18.9395 263.021 18.8857 263.028 18.8343 262.996C18.7976 263.035 18.7609 263.082 18.7291 263.136C18.2936 263.325 17.7579 262.808 17.3714 263.334C17.3543 263.386 17.3396 263.44 17.3274 263.494C17.2662 263.535 17.205 263.575 17.1439 263.614C16.8136 264.001 16.4883 264.393 16.0846 264.704C15.8718 264.792 15.6345 264.78 15.5073 264.616C14.9397 263.891 14.0077 263.543 13.5747 262.675C13.2664 262.063 12.8946 262.648 12.5497 262.675C12.5497 262.697 12.5423 262.717 12.5399 262.739C12.2219 263.258 11.7473 263.477 11.1602 263.624C10.3406 263.829 9.57249 264.207 8.73584 264.398C8.21477 264.516 8.17319 265.305 7.60808 265.476C7.39036 265.633 7.21422 265.834 7.0332 266.025C6.42895 266.236 6.25771 265.675 6.00329 265.378C5.80025 265.143 5.61188 265.01 5.39905 264.998C5.24493 265.04 5.0957 265.106 4.94159 265.182C4.95137 265.498 4.78502 265.628 4.46944 265.493C4.23215 265.395 4.02177 265.346 3.78936 265.466C3.73799 265.528 3.68906 265.591 3.64014 265.652C3.19491 265.356 2.96495 264.704 2.302 264.761C2.302 264.765 2.302 264.768 2.302 264.773C2.09161 265.258 1.78093 265.211 1.48003 264.888C1.22806 264.621 1.18158 264.261 1.0984 263.903C0.954068 263.281 0.792611 262.624 0 262.465V242.972L0.0611582 242.955L0.447678 244.214L1.02746 243.849L1.89835 244.408V243.584L2.76924 242.955L3.25362 244.067L4.02666 243.849C4.02666 243.849 4.60888 243.729 4.80214 243.535C4.9954 243.342 5.67304 242.276 5.71952 242.663C5.76844 243.05 6.01063 244.116 6.01063 244.116L6.8326 243.663L7.26804 242.58L7.94568 243.663H8.62331L9.2985 243.05C9.2985 243.05 10.3627 243.729 10.3627 243.874C10.3627 244.018 11.0403 243.437 11.0403 243.437L11.3803 242.808L12.0555 242.276L12.7821 242.712L13.5086 242.276L14.766 241.742L15.3947 242.518V243.244C15.3947 243.244 16.6032 242.469 16.7476 242.469C16.8919 242.469 17.2319 242.712 17.2319 242.712L18.4404 242.614L18.9737 241.742L19.8446 242.759L20.6177 241.742V242.906L21.102 243.244L21.6818 242.518L22.4549 242.565L23.2303 241.742C23.2303 241.742 23.4701 241.259 23.5679 241.499C23.6658 241.742 23.9055 242.129 23.9055 242.371V243.089L24.9697 242.614V242.178L25.2608 241.433L25.6473 242.129L26.0828 241.433H26.7115L27.0026 241.935L27.487 241.984L28.2111 241.433L29.033 241.016L29.6128 240.725L30.2904 241.016L30.677 241.355L31.2103 241.161L31.7411 240.289L32.8053 239.708H33.7251L34.3538 239.127L35.2247 239.514L35.6112 239.659L35.8534 239.127L36.3843 238.399H38.3682L38.8037 237.868H39.2391L39.4813 238.255L40.3522 237.868L41.9961 236.946L42.5759 237.284L43.7379 237.721H44.7042L44.9464 238.012L45.5262 237.478L46.5439 236.946H47.7034L47.9945 236.559H48.9119L49.6874 235.88L50.3161 235.106V236.461L50.847 236.51L51.5246 236.123L52.782 235.638L53.2664 235.106L53.9905 235.831L54.8614 235.782L55.4901 235.929L56.4588 235.88C56.4588 235.88 56.8943 235.782 56.9897 235.976C57.0875 236.172 57.3762 236.412 57.3762 236.412L57.9584 235.929V235.589L58.6336 235.106L59.0226 235.782L59.3602 236.366L59.7956 235.929L60.0378 235.444L60.4243 235.106H61.053V235.444L61.7307 235.106H62.0193L62.3105 235.589L62.648 235.88L63.3746 235.444L64.0033 235.782L64.4388 235.106H65.1653V236.123L65.8405 235.782L66.0827 235.346L66.3738 234.815L66.616 235.251L67.0514 234.815V235.153L67.5823 235.202L68.0667 234.572H68.4532V235.346L69.1797 234.572L69.6152 234.28V235.202L70.0506 234.815L70.5326 235.106L70.8237 234.815L71.1613 234.28H72.3722L72.6609 234.864L72.9031 234.765L73.8694 234.572L74.1605 234.91L74.4981 235.202L74.8381 234.28L75.3225 234.765L75.6111 234.28H76.0955L76.6753 234.959L77.0153 235.395V235.008H77.6905L78.0306 235.444L78.5149 235.346L79.288 235.251L79.6256 235.493L80.1099 235.929L80.6408 236.074L81.0298 236.219L81.5606 235.976L81.8517 235.54L82.5758 235.106L83.0602 235.251V235.008L83.3978 234.28L84.2687 233.798L84.5109 233.457H84.9953V233.604L85.9151 233.457L86.397 234.087L86.9792 234.378L87.3658 233.457H87.7033V233.893L87.9455 234.087L88.381 234.28L88.6232 233.7V233.07L89.154 233.41L89.7362 233.893L89.976 233.991V233.7L90.6536 233.457V233.07H91.4291L91.911 232.732L92.5887 232.345L92.8798 232.827V233.312L93.2663 232.585V231.761L93.9904 232.053L94.2815 231.23V230.987L94.717 231.374V231.568L95.3457 231.519L95.6833 231.279L96.1187 232.004V232.732L96.3609 232.781L96.7474 232.489L97.2318 232.247H97.8605V231.859L98.4892 231.715L98.7314 232.197L99.1668 231.81L99.458 231.279V231.859L100.038 232.004L100.424 231.81H101.344L101.102 230.987L101.344 231.23L101.731 230.987L101.973 230.308L102.553 231.036V231.81L102.844 232.247L103.23 232.538L103.472 231.908L103.859 231.472L104.537 231.568V232.102L104.294 232.683L104.779 232.102L105.212 231.761L105.503 232.053L106.083 232.296L106.374 232.004V232.44L106.858 232.732L107.729 232.538L108.358 232.634L108.695 232.876H109.275L109.953 232.827L110.679 232.781L111.017 233.021L111.354 233.263L111.79 232.781L112.032 232.974L112.808 232.44V231.472L113.243 232.391L113.774 232.102L114.354 232.538V231.715L114.936 231.374L115.516 230.987L116.095 231.374L116.387 231.859L116.868 231.617L117.16 232.004L117.451 232.827V232.247L118.561 231.81V232.585L118.997 232.827L119.337 232.247L119.966 232.732L120.401 232.197V231.472L121.174 232.004L121.609 231.908L122.143 232.538C122.143 232.538 122.625 232.148 122.576 231.908C122.529 231.666 122.581 230.889 122.581 230.889L123.253 232.102L122.965 232.489L123.593 232.634V233.07L124.075 232.827L124.464 232.197L124.995 232.149L125.673 231.761C125.673 231.761 125.915 231.568 126.01 231.715C126.108 231.859 126.302 232.44 126.302 232.44L126.688 231.955L127.317 231.519L127.801 231.666V231.181H128.237L128.574 231.519L129.059 231.81L129.736 232.44V231.81L130.172 231.325L130.558 230.066L131.236 230.502L131.767 230.744V231.472L132.589 231.085L132.975 231.568V232.732L133.508 232.149L133.944 232.732L134.379 232.925V234.04L134.766 233.651C134.766 233.651 134.959 233.312 135.103 233.506C135.25 233.7 135.395 234.378 135.395 234.378V235.008L136.023 234.67L136.265 234.815L136.652 235.346L136.41 236.123L137.038 235.687L137.474 235.008L138.054 235.346L138.587 235.54L139.071 235.346L139.409 235.929L139.844 236.074V237.672L140.957 237.407L141.246 236.897L142.022 236.51L142.457 236.461C142.457 236.461 142.939 236.317 143.086 236.412C143.23 236.51 143.521 237.091 143.521 237.091V236.317L144.294 236.074V236.606L144.779 236.123L145.214 236.074L145.696 236.219L145.938 236.802L146.423 236.606V235.831H146.907L147.487 236.268C147.487 236.268 147.389 236.559 147.487 236.655C147.582 236.753 148.211 237.189 148.211 237.189V237.407L149.035 237.14L149.468 236.704H150.195L150.679 236.366L151.357 235.687L151.839 235.106L152.516 235.346V234.716L153.05 234.087L153.532 234.572L154.016 235.008L154.307 235.638L154.645 235.057H155.176L156.338 235.3L156.724 235.008H156.966L157.304 234.427L158.079 234.67L158.322 233.942L159.288 233.7H159.723L160.061 233.991L160.401 234.815L160.738 233.893L160.981 233.457L161.318 232.974V232.44L161.707 232.149L162.143 232.391L162.578 231.908L163.011 231.085L163.882 231.568V232.102L164.366 233.361V231.955H164.802L165.237 231.519L165.528 230.793L166.157 230.987L166.495 230.695L167.028 231.085L167.415 230.842V230.308L168.332 229.823L168.672 229.485L169.107 229.728V229.485L169.831 229.777L170.172 228.806L170.896 228.127H171.089L171.331 228.662L171.042 229.291L171.573 228.468L172.107 228.419L172.493 228.564L173.171 228.711L172.929 227.789L173.171 227.209H173.653L173.895 226.966H175.588L175.928 226.628H176.603V227.498L176.845 226.628L177.087 226.045H177.474L177.716 226.868L177.958 226.045L178.296 225.755V226.628L178.829 226.143L179.216 225.755H179.507V226.628L179.942 225.464L180.571 225.221L180.908 225.706L181.246 225.464L181.586 225.755L181.875 225.802L182.264 225.221L182.699 224.69L183.132 225.077L183.617 224.69V224.447H184.196L184.632 223.67L185.021 224.011L185.358 224.253H185.843V224.641L186.809 225.27V224.641L187.438 225.415L187.778 225.562V224.543L188.066 224.204L188.358 224.349L188.744 224.543L189.471 224.06L189.953 224.155L189.835 224.609L189.615 225.464L190.437 223.67C190.437 223.67 190.872 224.011 190.872 224.155V224.785L191.21 224.398L191.645 223.67L192.13 224.3L192.661 223.67L192.952 222.994L193.194 223.283L193.725 223.43V222.411H194.016L194.645 221.975V222.217L195.467 222.509L195.951 222.994V222.411L196.435 221.734L196.822 222.46L197.064 222.122C197.064 222.122 197.353 221.492 197.499 221.734C197.644 221.975 198.175 222.558 198.175 222.558L198.564 222.509L198.852 222.217V221.975C198.852 221.975 198.95 221.622 199.094 221.678C199.239 221.734 199.821 222.073 199.821 222.073L200.208 221.879V221.151L200.45 220.862H200.836L201.367 220.521L201.803 220.134V219.603H202.965L203.253 219.311L203.642 219.747V219.311C203.642 219.311 203.835 218.924 204.078 218.924H204.802C204.802 218.924 205.43 217.907 205.335 218.147C205.237 218.39 205.093 220.085 205.093 220.085L205.577 220.698L206.01 221.249L205.722 219.554V218.924L206.35 219.747L206.592 219.649L207.172 219.505L207.559 219.843V220.715L208.188 220.183L208.623 219.554L208.865 219.941V220.328L209.445 219.941C209.445 219.941 209.638 220.134 209.687 220.377C209.736 220.619 209.929 221.056 209.929 221.056C209.929 221.056 210.509 220.57 210.607 220.862L210.702 221.151L211.573 220.426H212.444L213.41 220.279L214.186 220.328L214.621 219.892L215.394 219.99C215.394 219.99 215.152 219.36 215.394 219.36C215.637 219.36 216.507 220.134 216.507 220.134L216.845 220.764V221.345L217.329 220.521H217.716L218.685 220.085C218.685 220.085 219.022 220.619 219.022 220.813V221.975L219.749 221.007L220.086 220.521L220.666 221.105L221.537 221.249L222.264 221.492L222.746 222.364V222.896L223.181 222.411L223.472 222.896L224.343 222.994L224.681 223.381L225.116 223.332V222.702L225.843 222.945L225.6 222.315L225.843 221.928L226.327 222.122L226.616 221.249L226.907 221.879V222.411L227.342 222.024H228.02L228.309 222.509L228.937 223.138V223.67L229.517 224.06V223.04L230.823 222.847V223.477L231.599 222.847L232.13 223.04L232.807 223.332L233.387 223.236L233.872 223.381L234.307 223.866L234.887 224.106L235.224 224.447V224.883L235.613 224.3L236.144 223.67L236.484 223.526L236.724 223.624L237.159 223.866L237.693 223.381H237.981L238.417 224.011L238.852 223.67H239.143L239.434 224.011L239.674 224.398L240.256 224.011H240.643C240.643 224.011 241.272 223.817 241.223 224.011C241.174 224.204 240.981 224.883 240.981 224.883L241.563 224.106L242.191 223.817V224.253L242.965 224.398L243.495 224.3C243.495 224.3 243.786 223.67 243.835 223.866C243.884 224.06 244.124 224.69 244.124 224.69L244.513 223.817H245.286V224.447L245.817 223.526V224.106L246.301 223.768C246.301 223.768 246.786 223.866 246.835 224.011C246.881 224.155 247.172 224.641 247.172 224.641L247.801 224.3V224.834L248.816 224.69L249.398 225.366V226.143L249.785 225.172L249.543 224.496L250.316 224.979V225.706L250.8 224.592L251.236 224.204L251.913 224.69L252.542 224.398V223.962L253.364 224.543L253.944 224.253L254.477 224.641L254.766 224.398L255.685 224.641L255.345 223.866L255.977 224.204L256.363 223.67L257.523 224.447L257.909 224.106L258.587 223.477L259.264 223.913L259.844 224.106L260.424 223.719L261.248 225.319L260.859 223.719L261.248 223.624L261.586 223.866V222.896L262.264 223.477V223.04L262.988 222.604L263.377 222.896L263.665 223.089L264.052 222.315L264.536 222.8C264.536 222.8 265.214 222.702 265.263 222.847C265.309 222.994 265.503 223.477 265.503 223.477L265.794 221.975L266.134 221.636L266.809 221.538L267.922 222.073L268.695 222.122L269.228 221.685L269.615 220.862L270.292 221.249L271.066 221.151L271.308 220.764L271.792 219.892L272 219.933Z" fill="#F0E74D"/>
</svg>
